<svg xmlns="http://www.w3.org/2000/svg" width="1200" height="600" viewBox="0 0 1200 600">
  <defs>
    <linearGradient id="bg" x1="0" y1="0" x2="1" y2="1">
      <stop offset="0" stop-color="#fff7ed"/>
      <stop offset="1" stop-color="#ffffff"/>
    </linearGradient>
  </defs>
  <rect width="1200" height="600" fill="url(#bg)"/>
  <g opacity="0.12" fill="#0f172a">
    <circle cx="220" cy="150" r="120"/>
    <circle cx="1040" cy="120" r="160"/>
    <circle cx="980" cy="520" r="220"/>
  </g>
  <g transform="translate(180 150)">
    <path d="M300 40c170 0 310 110 310 250 0 80-50 140-110 140-40 0-60-30-60-60 0-22 12-42 32-56 22-16 22-38 6-56-18-20-62-18-100-6-48 14-94 14-142 0-38-12-82-14-100 6-16 18-16 40 6 56 20 14 32 34 32 56 0 30-20 60-60 60C40 430-10 370-10 290  -10 150 130 40 300 40z" fill="#ffffff" stroke="#0f172a" stroke-opacity="0.18" stroke-width="10"/>
    <circle cx="216" cy="210" r="30" fill="#ef4444"/>
    <circle cx="300" cy="176" r="30" fill="#f59e0b"/>
    <circle cx="386" cy="210" r="30" fill="#22c55e"/>
    <circle cx="404" cy="296" r="30" fill="#3b82f6"/>
    <circle cx="338" cy="354" r="30" fill="#a855f7"/>
    <path d="M520 380l90 90c14 14 14 36 0 50l-22 22c-14 14-36 14-50 0l-90-90 72-72z" fill="#0f172a" opacity="0.8"/>
    <path d="M520 380l-18-18c-10-10-10-26 0-36l18-18 54 54-54 54z" fill="#0f172a" opacity="0.55"/>
  </g>
  <g>
    <rect x="70" y="60" width="460" height="140" rx="26" fill="#000000" fill-opacity="0.25" stroke="#0f172a" stroke-opacity="0.12"/>
    <text x="300" y="150" text-anchor="middle" fill="#ffffff" font-size="72" font-weight="900" font-family="ui-sans-serif, system-ui, -apple-system, Segoe UI, Roboto, Arial">ARTS</text>
  </g>
</svg>
