<svg xmlns="http://www.w3.org/2000/svg" width="1200" height="600" viewBox="0 0 1200 600">
  <defs>
    <linearGradient id="bg" x1="0" y1="0" x2="1" y2="1">
      <stop offset="0" stop-color="#0b1220"/>
      <stop offset="1" stop-color="#020617"/>
    </linearGradient>
    <linearGradient id="g1" x1="0" y1="0" x2="0" y2="1">
      <stop offset="0" stop-color="#34d399"/>
      <stop offset="1" stop-color="#059669"/>
    </linearGradient>
    <linearGradient id="g2" x1="0" y1="0" x2="0" y2="1">
      <stop offset="0" stop-color="#f472b6"/>
      <stop offset="1" stop-color="#db2777"/>
    </linearGradient>
    <linearGradient id="g3" x1="0" y1="0" x2="0" y2="1">
      <stop offset="0" stop-color="#60a5fa"/>
      <stop offset="1" stop-color="#2563eb"/>
    </linearGradient>
    <linearGradient id="g4" x1="0" y1="0" x2="0" y2="1">
      <stop offset="0" stop-color="#fde047"/>
      <stop offset="1" stop-color="#eab308"/>
    </linearGradient>
    <filter id="smoke" x="-20%" y="-20%" width="140%" height="140%">
      <feTurbulence type="fractalNoise" baseFrequency="0.015" numOctaves="2" seed="2" />
      <feDisplacementMap in="SourceGraphic" scale="22" />
      <feColorMatrix type="matrix" values="1 0 0 0 0  0 1 0 0 0  0 0 1 0 0  0 0 0 .45 0"/>
    </filter>
  </defs>
  <rect width="1200" height="600" fill="url(#bg)"/>
  <g opacity="0.25" filter="url(#smoke)">
    <path d="M140 300c90-60 170-60 260 0s170 60 260 0 170-60 260 0 170 60 260 0" fill="none" stroke="#ffffff" stroke-width="18" stroke-linecap="round"/>
    <path d="M120 200c110-70 210-70 320 0s210 70 320 0 210-70 320 0" fill="none" stroke="#ffffff" stroke-width="14" stroke-linecap="round"/>
  </g>
  <g fill="none" stroke="#e5e7eb" stroke-opacity="0.85" stroke-width="10" stroke-linejoin="round">
    <path d="M210 150h90v120l70 140c20 40-10 90-56 90H196c-46 0-76-50-56-90l70-140V150z"/>
    <path d="M460 190h70v70c0 20 10 50 30 80l30 50c24 40-4 90-52 90h-86c-48 0-76-50-52-90l30-50c20-30 30-60 30-80v-70z"/>
    <path d="M740 140h90v220c0 18 12 54 24 78l16 30c20 38-6 86-50 86h-70c-44 0-70-48-50-86l16-30c12-24 24-60 24-78V140z"/>
    <path d="M980 240h120v210c0 44-36 80-80 80h-40c-44 0-80-36-80-80 0-44 36-80 80-80h40v-130z"/>
  </g>
  <g>
    <path d="M175 430c-10 20 4 45 25 45h110c21 0 35-25 25-45l-30-60H205l-30 60z" fill="url(#g1)" opacity="0.9"/>
    <path d="M430 430c-10 20 4 45 25 45h70c21 0 35-25 25-45l-22-38h-76l-22 38z" fill="url(#g2)" opacity="0.9"/>
    <path d="M705 440c-10 18 2 40 22 40h74c20 0 32-22 22-40l-18-34h-84l-16 34z" fill="url(#g3)" opacity="0.9"/>
    <path d="M960 470c0 22 18 40 40 40h40c22 0 40-18 40-40 0-22-18-40-40-40h-40c-22 0-40 18-40 40z" fill="url(#g4)" opacity="0.9"/>
  </g>
  <g>
    <rect x="70" y="60" width="520" height="140" rx="24" fill="#000000" opacity="0.35" stroke="#ffffff" stroke-opacity="0.12"/>
    <text x="330" y="150" text-anchor="middle" fill="#ffffff" font-size="64" font-weight="900" font-family="ui-sans-serif, system-ui, -apple-system, Segoe UI, Roboto, Arial">CHIMIE</text>
  </g>
</svg>
