<svg xmlns="http://www.w3.org/2000/svg" width="1200" height="600" viewBox="0 0 1200 600">
  <defs>
    <linearGradient id="bg" x1="0" y1="0" x2="1" y2="1">
      <stop offset="0" stop-color="#ffffff"/>
      <stop offset="1" stop-color="#f3f4f6"/>
    </linearGradient>
  </defs>
  <rect width="1200" height="600" fill="url(#bg)"/>
  <g opacity="0.12" fill="#111827">
    <circle cx="230" cy="160" r="120"/>
    <circle cx="1040" cy="120" r="160"/>
    <circle cx="980" cy="520" r="220"/>
  </g>
  <g transform="translate(250 130)">
    <circle cx="220" cy="230" r="130" fill="#fde68a" opacity="0.95" stroke="#111827" stroke-opacity="0.12" stroke-width="10"/>
    <path d="M220 120c-64 0-116 52-116 116s52 116 116 116 116-52 116-116-52-116-116-116z" fill="#f59e0b" opacity="0.25"/>
    <path d="M240 170c28 10 44 30 44 54 0 34-26 58-70 62v26h-22v-26c-34-2-60-16-76-38l26-18c12 18 30 28 56 30v-48c-44-10-66-30-66-58 0-32 26-56 66-60v-24h22v24c28 2 50 12 64 28l-24 18c-10-12-22-18-40-20v44zM198 214v-40c-18 4-28 14-28 26 0 8 2 10 28 14zM220 240v44c22-4 34-14 34-30 0-10-4-12-34-14z" fill="#111827" opacity="0.85"/>
    <path d="M430 120c30 0 54 24 54 54 0 16-8 30-18 40 28 10 48 36 48 66 0 40-32 72-72 72h-54c-40 0-72-32-72-72 0-30 18-56 46-66-10-10-18-24-18-40 0-30 24-54 54-54h32z" fill="#3b82f6" opacity="0.18"/>
    <path d="M470 110l46 14" stroke="#3b82f6" stroke-width="14" stroke-linecap="round" opacity="0.65"/>
    <path d="M500 84l18 44" stroke="#3b82f6" stroke-width="14" stroke-linecap="round" opacity="0.65"/>
    <path d="M520 150l-40 28" stroke="#3b82f6" stroke-width="14" stroke-linecap="round" opacity="0.65"/>
    <rect x="110" y="410" width="520" height="90" rx="26" fill="#000000" fill-opacity="0.22" stroke="#111827" stroke-opacity="0.10"/>
    <text x="370" y="472" text-anchor="middle" fill="#111827" font-size="58" font-weight="900" font-family="ui-sans-serif, system-ui, -apple-system, Segoe UI, Roboto, Arial">ÉCONOMIE</text>
  </g>
</svg>
