<svg xmlns="http://www.w3.org/2000/svg" width="1200" height="600" viewBox="0 0 1200 600">
  <defs>
    <linearGradient id="bg" x1="0" y1="0" x2="1" y2="1">
      <stop offset="0" stop-color="#ffffff"/>
      <stop offset="1" stop-color="#f3f4f6"/>
    </linearGradient>
  </defs>
  <rect width="1200" height="600" fill="url(#bg)"/>
  <g opacity="0.12" fill="#0f172a">
    <circle cx="210" cy="150" r="120"/>
    <circle cx="1040" cy="130" r="160"/>
    <circle cx="980" cy="520" r="220"/>
  </g>
  <g transform="translate(120 170)">
    <rect x="0" y="0" width="520" height="320" rx="28" fill="#0f172a" opacity="0.08" stroke="#0f172a" stroke-opacity="0.08"/>
    <rect x="44" y="70" width="210" height="140" rx="16" fill="#ffffff" stroke="#0f172a" stroke-opacity="0.12"/>
    <rect x="266" y="70" width="210" height="140" rx="16" fill="#ffffff" stroke="#0f172a" stroke-opacity="0.12"/>
    <g>
      <rect x="58" y="82" width="182" height="116" rx="10" fill="#ffffff"/>
      <path d="M58 82h182v116H58z" fill="#ffffff"/>
      <path d="M58 82h182v116H58z" fill="none" stroke="#0f172a" stroke-opacity="0.12"/>
      <path d="M58 82h78v116H58z" fill="#ef4444" opacity="0.9"/>
      <path d="M58 82h182v46H58z" fill="#2563eb" opacity="0.9"/>
      <path d="M58 152h182v46H58z" fill="#2563eb" opacity="0.9"/>
      <path d="M128 82h18v116h-18z" fill="#ffffff" opacity="0.95"/>
      <path d="M58 124h182v18H58z" fill="#ffffff" opacity="0.95"/>
    </g>
    <g opacity="0.92" fill="#0f172a" font-family="ui-sans-serif, system-ui, -apple-system, Segoe UI, Roboto, Arial" font-weight="800">
      <text x="300" y="260" font-size="40">Listening</text>
      <text x="70" y="260" font-size="40">Speaking</text>
      <text x="310" y="308" font-size="36">Writing</text>
      <text x="80" y="308" font-size="36">Reading</text>
    </g>
  </g>
  <g>
    <rect x="690" y="70" width="460" height="150" rx="26" fill="#000000" fill-opacity="0.28" stroke="#0f172a" stroke-opacity="0.12"/>
    <text x="920" y="170" text-anchor="middle" fill="#ffffff" font-size="72" font-weight="900" font-family="ui-sans-serif, system-ui, -apple-system, Segoe UI, Roboto, Arial">ANGLAIS</text>
  </g>
</svg>
