<svg xmlns="http://www.w3.org/2000/svg" width="1200" height="600" viewBox="0 0 1200 600">
  <defs>
    <linearGradient id="bg" x1="0" y1="0" x2="1" y2="1">
      <stop offset="0" stop-color="#16a34a"/>
      <stop offset="1" stop-color="#0f766e"/>
    </linearGradient>
  </defs>
  <rect width="1200" height="600" fill="url(#bg)"/>
  <g opacity="0.18" fill="#ffffff">
    <circle cx="240" cy="140" r="120"/>
    <circle cx="1020" cy="120" r="160"/>
    <circle cx="980" cy="520" r="220"/>
  </g>
  <g fill="none" stroke="#ffffff" stroke-width="12" stroke-linecap="round" stroke-linejoin="round" opacity="0.95">
    <path d="M260 440l120-160 120 160" />
    <path d="M740 210c60-50 140-50 200 0" />
    <path d="M720 340c90-70 210-70 300 0" />
    <path d="M560 270c40-40 80-40 120 0" />
    <circle cx="870" cy="440" r="68" />
    <path d="M822 422l96 36" />
    <path d="M822 458l96-36" />
    <path d="M870 372v136" />
  </g>
  <g>
    <rect x="380" y="70" width="440" height="150" rx="26" fill="#000000" fill-opacity="0.28" stroke="#ffffff" stroke-opacity="0.14"/>
    <text x="600" y="170" text-anchor="middle" fill="#ffffff" font-size="76" font-weight="900" font-family="ui-sans-serif, system-ui, -apple-system, Segoe UI, Roboto, Arial">E.P.S</text>
  </g>
</svg>
