<svg xmlns="http://www.w3.org/2000/svg" width="1200" height="600" viewBox="0 0 1200 600">
  <defs>
    <linearGradient id="bg" x1="0" y1="0" x2="1" y2="1">
      <stop offset="0" stop-color="#f8fafc"/>
      <stop offset="1" stop-color="#ffffff"/>
    </linearGradient>
    <filter id="shadow" x="-20%" y="-20%" width="140%" height="140%">
      <feDropShadow dx="0" dy="6" stdDeviation="10" flood-color="#0f172a" flood-opacity="0.18"/>
    </filter>
  </defs>
  <rect width="1200" height="600" fill="url(#bg)"/>
  <g opacity="0.10" fill="#0f172a">
    <circle cx="210" cy="140" r="120"/>
    <circle cx="1040" cy="120" r="160"/>
    <circle cx="980" cy="520" r="220"/>
  </g>

  <g filter="url(#shadow)" font-family="ui-sans-serif, system-ui, -apple-system, Segoe UI, Roboto, Arial" font-weight="900">
    <g>
      <rect x="390" y="190" width="430" height="130" rx="32" fill="#22c55e" opacity="0.95"/>
      <text x="605" y="275" text-anchor="middle" fill="#ffffff" font-size="74">langue</text>
    </g>

    <g>
      <rect x="320" y="320" width="520" height="150" rx="38" fill="#06b6d4" opacity="0.95"/>
      <text x="580" y="415" text-anchor="middle" fill="#ffffff" font-size="86">GRAMMAIRE</text>
    </g>

    <g>
      <rect x="130" y="280" width="260" height="120" rx="34" fill="#0ea5e9" opacity="0.92"/>
      <text x="260" y="360" text-anchor="middle" fill="#ffffff" font-size="64">CONJUGAISON</text>
    </g>

    <g>
      <rect x="770" y="420" width="360" height="120" rx="34" fill="#0ea5e9" opacity="0.92"/>
      <text x="950" y="500" text-anchor="middle" fill="#ffffff" font-size="64">ORTHOGRAPHE</text>
    </g>

    <g font-weight="800">
      <rect x="140" y="160" width="250" height="90" rx="26" fill="#f97316" opacity="0.92"/>
      <text x="265" y="220" text-anchor="middle" fill="#ffffff" font-size="46">vocabulaire</text>
    </g>

    <g font-weight="800">
      <rect x="860" y="170" width="240" height="90" rx="26" fill="#a855f7" opacity="0.92"/>
      <text x="980" y="230" text-anchor="middle" fill="#ffffff" font-size="46">FRANÇAIS</text>
    </g>

    <g font-weight="800">
      <rect x="690" y="150" width="190" height="80" rx="24" fill="#ef4444" opacity="0.92"/>
      <text x="785" y="205" text-anchor="middle" fill="#ffffff" font-size="46">verbe</text>
    </g>

    <g font-weight="800">
      <rect x="520" y="120" width="180" height="80" rx="24" fill="#4f46e5" opacity="0.92"/>
      <text x="610" y="175" text-anchor="middle" fill="#ffffff" font-size="46">sujet</text>
    </g>

    <g font-weight="800">
      <rect x="760" y="260" width="260" height="100" rx="30" fill="#f43f5e" opacity="0.92"/>
      <text x="890" y="327" text-anchor="middle" fill="#ffffff" font-size="50">complément</text>
    </g>

    <g font-weight="800">
      <rect x="520" y="460" width="240" height="90" rx="26" fill="#84cc16" opacity="0.92"/>
      <text x="640" y="520" text-anchor="middle" fill="#ffffff" font-size="46">dictionnaire</text>
    </g>
  </g>
</svg>
