<svg xmlns="http://www.w3.org/2000/svg" width="1200" height="600" viewBox="0 0 1200 600">
  <defs>
    <linearGradient id="bg" x1="0" y1="0" x2="1" y2="1">
      <stop offset="0" stop-color="#ffffff"/>
      <stop offset="1" stop-color="#f3f4f6"/>
    </linearGradient>
  </defs>
  <rect width="1200" height="600" fill="url(#bg)"/>
  <g fill="none" stroke="#111827" stroke-width="10" stroke-linecap="round" opacity="0.9">
    <path d="M120 360c140-90 260-90 400 0s260 90 560 0" />
    <path d="M120 420c140-90 260-90 400 0s260 90 560 0" />
    <path d="M120 300c140-90 260-90 400 0s260 90 560 0" />
    <path d="M120 480c140-90 260-90 400 0s260 90 560 0" />
    <path d="M120 240c140-90 260-90 400 0s260 90 560 0" />
  </g>
  <g fill="#111827" opacity="0.92">
    <path d="M210 520c-24 0-44-20-44-44 0-30 28-52 68-52 22 0 44 6 58 14V230l260-70v292c0 54-56 108-138 108-66 0-112-36-112-82 0-52 60-94 140-94 24 0 46 4 66 10V202l-180 48v204c0 66-60 120-146 120-66 0-112-36-112-82 0-52 60-94 140-94 18 0 36 2 50 6v-20c-14-10-34-16-60-16-54 0-88 30-88 64 0 24 18 44 44 44 20 0 38-10 52-28 8 10 12 22 12 34 0 40-42 72-92 72z"/>
  </g>
  <g>
    <rect x="740" y="70" width="420" height="140" rx="22" fill="#ffffff" opacity="0.7" stroke="#111827" stroke-opacity="0.14"/>
    <text x="950" y="160" text-anchor="middle" fill="#111827" font-size="64" font-weight="800" font-family="ui-sans-serif, system-ui, -apple-system, Segoe UI, Roboto, Arial">MUSIQUE</text>
  </g>
</svg>
