<svg xmlns="http://www.w3.org/2000/svg" width="1200" height="600" viewBox="0 0 1200 600">
  <defs>
    <linearGradient id="bg" x1="0" y1="0" x2="1" y2="1">
      <stop offset="0" stop-color="#ffffff"/>
      <stop offset="1" stop-color="#f9fafb"/>
    </linearGradient>
    <linearGradient id="shade" x1="0" y1="0" x2="0" y2="1">
      <stop offset="0" stop-color="#111827" stop-opacity="0.9"/>
      <stop offset="1" stop-color="#111827" stop-opacity="0.6"/>
    </linearGradient>
  </defs>
  <rect width="1200" height="600" fill="url(#bg)"/>
  <g opacity="0.08" fill="#111827">
    <circle cx="170" cy="140" r="120"/>
    <circle cx="980" cy="120" r="160"/>
    <circle cx="1030" cy="520" r="220"/>
  </g>
  <g fill="none" stroke="#111827" stroke-width="10" stroke-linecap="round" stroke-linejoin="round" opacity="0.92">
    <path d="M520 520h260" />
    <path d="M540 520c0-80 60-150 120-150s120 70 120 150" />
    <path d="M610 370c-20-30-28-60-16-90 16-40 62-56 106-40 44 16 62 56 42 94-10 18-26 32-44 40" />
    <path d="M652 388c-18-14-30-30-34-48" />
    <path d="M740 290c18 18 26 44 18 68" />
    <path d="M600 500c-10-54 6-86 34-110" />
    <path d="M720 390c28 24 44 56 34 110" />
    <path d="M585 260c0 18 12 32 28 32s28-14 28-32-12-32-28-32-28 14-28 32z" />
  </g>
  <g opacity="0.18" fill="#111827">
    <rect x="520" y="530" width="260" height="40" rx="12"/>
    <rect x="470" y="560" width="360" height="28" rx="10"/>
  </g>
  <g>
    <rect x="70" y="70" width="560" height="150" rx="26" fill="url(#shade)"/>
    <text x="350" y="170" text-anchor="middle" fill="#ffffff" font-size="64" font-weight="900" font-family="ui-sans-serif, system-ui, -apple-system, Segoe UI, Roboto, Arial">PHILOSOPHIE</text>
  </g>
</svg>
